<?xml version="1.0" encoding="utf-8"?>
<!-- Svg Vector Icons : http://www.onlinewebfonts.com/icon -->
<!DOCTYPE svg PUBLIC "-//W3C//DTD SVG 1.1//EN" "http://www.w3.org/Graphics/SVG/1.1/DTD/svg11.dtd">
<svg version="1.1" xmlns="http://www.w3.org/2000/svg" xmlns:xlink="http://www.w3.org/1999/xlink" x="0px" y="0px" viewBox="0 0 256 256" enable-background="new 0 0 256 256" xml:space="preserve">
<metadata> Svg Vector Icons : http://www.onlinewebfonts.com/icon </metadata>
<g><g><g><path fill="#000000" d="M124.9,10.4c-1.9,0.9-3.8,3.2-4.2,5.1c-0.1,0.8-0.2,13.8-0.1,28.8c0.1,26.8,0.1,27.3,1.1,28.6c1.8,2.4,3.3,3.2,6.2,3.2s4.4-0.7,6.2-3.2c0.9-1.2,1-1.8,1.1-24.6l0.1-23.4l3.8,0.3c10.2,0.8,23.8,4.8,34.2,9.9c30.6,15.1,51.6,43.7,56.8,77.6c1.2,7.3,1.2,23.1,0,30.2c-3.7,23.4-14,43.3-30.6,59.3c-20.4,19.7-47.4,30-75.4,28.9c-26.7-1.1-50.5-11.5-69.3-30.3C15.4,161.3,14.3,98.2,52.4,57.3c3.8-4.1,4.4-5.1,4.4-8c0-4.7-4.6-8-9.3-6.8c-2.3,0.6-5.7,4-11.6,11.3c-13.8,17.2-22.2,36.8-25.3,59.4c-0.8,5.7-0.8,23.8,0,29.3c3.3,22.9,12.1,43.4,26.1,60.4c15.9,19.3,38.3,33.6,62.1,39.6c49.3,12.4,100.1-7.4,128.2-50.1c25.4-38.5,25.4-90.2,0-128.7c-21.3-32.4-56-52.2-94-53.6C127.8,9.8,126,9.9,124.9,10.4z"/><path fill="#000000" d="M71.4,71.7c7.5,10.1,45.9,61.1,46.8,62c4.7,5.1,13.3,4.2,16.9-1.9c2.3-3.7,2.4-7.1,0.6-10.7c-0.4-0.9-1.4-2.2-2.1-2.8c-0.9-0.8-51.9-39.3-62-46.8C71,71.1,71,71.1,71.4,71.7z"/></g></g></g>
</svg>